<?xml version="1.0" standalone="no"?>
<!DOCTYPE svg PUBLIC "-//W3C//DTD SVG 20010904//EN"
 "http://www.w3.org/TR/2001/REC-SVG-20010904/DTD/svg10.dtd">
<svg version="1.0" xmlns="http://www.w3.org/2000/svg"
 width="512.000000pt" height="512.000000pt" viewBox="0 0 512.000000 512.000000"
 preserveAspectRatio="xMidYMid meet">
<metadata>
Created by potrace 1.14, written by Peter Selinger 2001-2017
</metadata>
<g transform="translate(0.000000,512.000000) scale(0.100000,-0.100000)"
fill="#000000" stroke="none">
<path d="M2405 4334 c-255 -57 -480 -238 -589 -476 -55 -117 -69 -186 -75
-361 l-6 -159 -135 -57 -135 -58 0 -729 c0 -683 1 -733 19 -799 68 -250 250
-475 541 -668 102 -68 376 -206 471 -237 l64 -22 64 22 c104 34 373 172 486
248 282 190 452 400 523 647 18 62 21 106 25 378 l4 307 -526 0 -526 0 0 -195
0 -195 326 0 326 0 -4 -107 c-3 -98 -7 -114 -36 -174 -81 -163 -256 -312 -524
-449 -64 -33 -126 -60 -138 -60 -12 0 -74 27 -138 60 -268 136 -442 285 -524
449 l-33 66 -3 601 -3 601 361 153 360 153 337 -151 338 -151 3 -111 3 -110
199 0 200 0 0 234 0 233 -112 51 -113 51 -7 158 c-8 189 -29 280 -93 408 -104
208 -287 361 -520 435 -93 30 -307 37 -410 14z m266 -384 c184 -34 342 -205
357 -385 l5 -65 -44 18 c-24 11 -126 56 -225 101 l-182 81 -222 -95 c-122 -52
-224 -95 -227 -95 -7 0 7 92 21 137 42 135 166 257 296 291 95 24 141 27 221
12z"/>
</g>
</svg>
