<svg viewBox="0 0 512 512" xmlns="http://www.w3.org/2000/svg">
    <path d="m477.45 38.47h-442.9c-12.16 0-22.05 9.89-22.05 22.05v341.79c0 12.16 9.89 22.05 22.05 22.05h214.85c-14.51 6.4-24.64 20.9-24.64 37.77 0 1.63.49 3.14 1.33 4.39h-19.26v-31.62c0-1.93-1.57-3.5-3.5-3.5s-3.5 1.57-3.5 3.5v31.62h-18.42c-1.93 0-3.5 1.57-3.5 3.5s1.57 3.5 3.5 3.5h149.16c1.93 0 3.5-1.57 3.5-3.5s-1.57-3.5-3.5-3.5h-8.78v-42.16h155.66c12.16 0 22.05-9.89 22.05-22.05v-341.78c0-12.16-9.89-22.06-22.05-22.06zm15.05 363.85c0 8.3-6.75 15.05-15.05 15.05h-442.9c-8.3 0-15.05-6.75-15.05-15.05v-39.5h452c1.93 0 3.5-1.57 3.5-3.5s-1.57-3.5-3.5-3.5h-452v-295.29c0-8.3 6.75-15.05 15.05-15.05h442.89c8.3 0 15.05 6.75 15.05 15.05v341.79z" />
    <path d="m256 374.47c-8.62 0-15.62 7.01-15.62 15.62s7.01 15.62 15.62 15.62 15.62-7.01 15.62-15.62-7-15.62-15.62-15.62zm6.37 9.87c-6.7 0-12.12 5.43-12.12 12.12v.04c-1.76-1.58-2.87-3.86-2.87-6.41 0-4.75 3.87-8.62 8.62-8.62 2.54 0 4.83 1.11 6.41 2.87-.01 0-.03 0-.04 0z" />
    <path d="m106.74 151.85c1.37 1.37 3.16 2.05 4.95 2.05s3.58-.68 4.95-2.05l17.08-17.08 17.08 17.08c1.37 1.37 3.16 2.05 4.95 2.05s3.58-.68 4.95-2.05c2.73-2.73 2.73-7.17 0-9.9l-17.08-17.08 17.08-17.08c2.73-2.73 2.73-7.17 0-9.9s-7.17-2.73-9.9 0l-17.08 17.08-17.08-17.07c-2.73-2.73-7.17-2.73-9.9 0s-2.73 7.17 0 9.9l17.08 17.08-17.08 17.08c-2.74 2.73-2.74 7.16 0 9.89z" />
    <path d="m405.26 97.9c-2.73-2.73-7.17-2.73-9.9 0l-17.08 17.08-17.07-17.08c-2.73-2.73-7.17-2.73-9.9 0s-2.73 7.17 0 9.9l17.08 17.08-17.08 17.08c-2.73 2.73-2.73 7.17 0 9.9 1.37 1.37 3.16 2.05 4.95 2.05s3.58-.68 4.95-2.05l17.08-17.08 17.08 17.08c1.37 1.37 3.16 2.05 4.95 2.05s3.58-.68 4.95-2.05c2.73-2.73 2.73-7.17 0-9.9l-17.08-17.08 17.08-17.08c2.73-2.73 2.73-7.17-.01-9.9z" />
    <path d="m402.9 233.73c-46.52-18.49-94.95-27.87-143.96-27.87-.08 0-.16 0-.24 0-48.85.03-99.59 9.38-150.82 27.78-3.64 1.31-5.53 5.32-4.22 8.96 1.03 2.86 3.72 4.63 6.59 4.63.79 0 1.58-.13 2.37-.41 49.71-17.86 98.86-26.93 146.09-26.96h.23c16.6 0 33.13 1.14 49.54 3.36v38.06c0 22.17 17.97 40.14 40.14 40.14 22.17 0 40.14-17.97 40.14-40.14v-17.98c2.99 1.11 5.98 2.25 8.96 3.43 3.59 1.43 7.66-.33 9.09-3.92s-.32-7.65-3.91-9.08zm-49.28 36.25c0 2.76-2.24 5-5 5s-5-2.24-5-5v-31.32c0-2.76 2.24-5 5-5s5 2.24 5 5z" />
</svg>
