<svg width="100%" height="100%" viewBox="0 0 1399 360" version="1.1" xmlns="http://www.w3.org/2000/svg" xml:space="preserve">
    <style>
        #primary {
            fill: #ffd000;
        }
        #secondary {
            fill: #284696 !important;
        }
        @media (prefers-color-scheme: dark) {
            #secondary {
                fill: #ffffff !important;
            }
        }
    </style>
    <g transform="matrix(1,0,0,1,-158.122,-76.125)">
        <g id="secondary" class="secondary" style="fill:#284696;">
            <path d="M890.97,182.838L850.646,182.838L850.646,161.221C850.646,136.535 830.561,116.45 805.875,116.45C781.189,116.45 761.108,136.535 761.108,161.221L761.108,182.838L720.783,182.838L720.783,161.221C720.783,114.3 758.958,76.125 805.875,76.125C852.795,76.125 890.97,114.3 890.97,161.221L890.97,182.838Z" />
            <path d="M166.885,377.738C161.043,371.9 158.122,364.256 158.122,354.809L158.122,125.499L349.401,125.499L349.401,163.159L201.747,163.159L201.747,234.004L338.212,234.004L338.212,272.032L201.747,272.032L201.747,348.845L349.401,348.845L349.401,386.501L190.189,386.501C180.494,386.501 172.723,383.583 166.885,377.738" />
            <path d="M407.558,125.501L446.708,125.501L578.703,316.401L578.703,125.501L621.208,125.501L621.208,386.502L581.683,386.502L450.064,196.342L450.064,386.502L407.558,386.502L407.558,125.501Z" />
            <rect x="986.109" y="125.502" width="43.624" height="261.001" />
            <path d="M1166.94,163.158L1084.17,163.158L1084.17,125.502L1293.34,125.502L1293.34,163.158L1210.56,163.158L1210.56,386.5L1166.94,386.5L1166.94,163.158Z" />
            <path d="M1416.75,285.457L1320.18,125.502L1367.53,125.502L1438.37,245.56L1509.22,125.502L1556.57,125.502L1460,285.457L1460,386.5L1416.75,386.5L1416.75,285.457Z" />
        </g>
        <path id="primary" class="primary" d="M913.951,237.643L913.951,189.653L805.878,141.323L693.365,189.415L693.365,324.421C693.365,397.097 792.865,432.161 797.101,433.62L803.658,435.875L810.215,433.62C814.451,432.161 913.951,397.097 913.951,324.421L913.951,274.247L807.732,274.247L807.732,314.572L873.626,314.572L873.626,324.421C873.626,357.593 827.937,383.088 803.661,392.994C779.354,383.074 733.69,357.582 733.69,324.421L733.69,216.036L805.513,185.333L873.626,215.797L873.626,237.643L913.951,237.643Z" style="fill:#ffd000;" />
    </g>
</svg>
