<svg id="Capa_1" enable-background="new 0 0 512 512" height="512" viewBox="0 0 512 512" width="512" xmlns="http://www.w3.org/2000/svg"><g><path d="m462.294 112.591-185.245-106.951c-13.025-7.52-29.072-7.52-42.097 0l-185.246 106.951c-13.025 7.52-21.049 21.417-21.049 36.457v213.903c0 15.04 8.024 28.937 21.049 36.457l185.245 106.952c13.025 7.52 29.072 7.52 42.097 0l185.245-106.951c13.025-7.52 21.049-21.417 21.049-36.457v-213.903c0-15.04-8.023-28.938-21.048-36.458z" fill="#fed402"/><path d="m256 483.556c-2.393 0-4.753-.633-6.826-1.83l-185.245-106.951c-4.211-2.431-6.827-6.961-6.827-11.823v-213.904c0-4.862 2.616-9.393 6.827-11.823l185.245-106.951c2.073-1.197 4.433-1.83 6.826-1.83s4.753.633 6.825 1.829l185.247 106.952c4.21 2.431 6.826 6.962 6.826 11.823v213.903c0 4.862-2.616 9.393-6.826 11.823l-185.246 106.952c-2.073 1.197-4.433 1.83-6.826 1.83z" fill="#0681af"/><path d="m448.072 137.225-52.802-30.383c11.395 6.579 18.415 18.737 18.415 31.895v187.135c0 13.158-7.02 25.316-18.415 31.895l-162.064 93.568c-10.692 6.173-23.712 6.554-34.692 1.142l50.66 29.249c2.073 1.197 4.433 1.83 6.826 1.83s4.753-.633 6.826-1.83l185.246-106.951c4.21-2.431 6.826-6.961 6.826-11.823v-213.904c0-4.861-2.616-9.392-6.826-11.823z" fill="#017297"/><path d="m261.605 107.191 86.417 49.893c6.802 3.927 15.5 1.597 19.428-5.206 3.927-6.802 1.597-15.5-5.206-19.428l-95.486-55.129c-6.657-3.843-14.858-3.843-21.515 0l-95.487 55.129c-6.802 3.927-9.133 12.625-5.206 19.428 3.927 6.802 12.625 9.133 19.428 5.206l86.418-49.893c3.468-2.002 7.741-2.002 11.209 0z" fill="#fed402"/><g fill="#f2fbff"><path d="m241.773 222.559c4.142 0 7.5-3.357 7.5-7.5s-3.358-7.5-7.5-7.5h-49.129c-4.142 0-7.5 3.357-7.5 7.5v81.882c0 4.143 3.358 7.5 7.5 7.5h49.129c4.142 0 7.5-3.357 7.5-7.5s-3.358-7.5-7.5-7.5h-41.629v-25.941h41.629c4.142 0 7.5-3.357 7.5-7.5s-3.358-7.5-7.5-7.5h-41.629v-25.941z"/><path d="m326.519 207.832c-3.248-.901-6.699.477-8.433 3.369l-18.134 30.222-18.133-30.222c-1.735-2.892-5.183-4.271-8.433-3.369-3.249.899-5.498 3.856-5.498 7.228v81.882c0 4.143 3.358 7.5 7.5 7.5s7.5-3.357 7.5-7.5v-54.805l10.633 17.722c1.355 2.26 3.797 3.642 6.431 3.642s5.076-1.382 6.431-3.642l10.634-17.722v54.805c0 4.143 3.358 7.5 7.5 7.5s7.5-3.357 7.5-7.5v-81.882c0-3.372-2.249-6.329-5.498-7.228z"/><path d="m131.878 207.559h-24.564c-4.142 0-7.5 3.357-7.5 7.5v81.882c0 4.143 3.358 7.5 7.5 7.5h24.564c17.681 0 32.065-14.384 32.065-32.064v-32.752c0-17.681-14.384-32.066-32.065-32.066zm17.065 64.817c0 9.409-7.655 17.064-17.065 17.064h-17.064v-66.882h17.064c9.41 0 17.065 7.655 17.065 17.065z"/><path d="m380.111 207.559c-17.68 0-32.064 14.384-32.064 32.063v32.754c0 17.681 14.384 32.064 32.065 32.064 17.68 0 32.064-14.384 32.064-32.064v-32.754c0-17.679-14.385-32.063-32.065-32.063zm17.065 64.817c0 9.409-7.655 17.064-17.065 17.064-9.409 0-17.064-7.655-17.064-17.064v-32.754c0-9.409 7.655-17.063 17.065-17.063 9.409 0 17.064 7.654 17.064 17.063z"/></g></g></svg>